<svg width="41" height="40" viewBox="0 0 41 40" fill="none" xmlns="http://www.w3.org/2000/svg">
<g clip-path="url(#clip0_2336_811)">
<path d="M15.6105 30.2955C15.3777 30.5283 15.2469 30.8441 15.2469 31.1733C15.2469 31.5026 15.3777 31.8184 15.6105 32.0512C15.8434 32.284 16.1591 32.4148 16.4884 32.4148H23.9373C24.2666 32.4148 24.5824 32.284 24.8152 32.0512C25.048 31.8184 25.1788 31.5026 25.1788 31.1733C25.1788 30.8441 25.048 30.5283 24.8152 30.2955C24.5824 30.0626 24.2666 29.9318 23.9373 29.9318H16.4884C16.1591 29.9318 15.8434 30.0626 15.6105 30.2955Z" fill="#212529"/>
<path fill-rule="evenodd" clip-rule="evenodd" d="M14.0799 14.7509C10.8645 14.4505 7.79798 16.921 7.79798 20.1539V23.0267C7.78784 23.576 7.9733 24.1111 8.32124 24.5364C8.66919 24.9617 9.15696 25.2494 9.69746 25.3483C11.7956 25.7108 15.5076 26.2074 20.2129 26.2074C24.9181 26.2074 28.6302 25.7133 30.7283 25.3483C31.2688 25.2494 31.7566 24.9617 32.1045 24.5364C32.4524 24.1111 32.6379 23.576 32.6278 23.0267V20.1539C32.6278 16.921 29.5613 14.4505 26.3458 14.7509C22.2661 15.1317 18.1597 15.1317 14.0799 14.7509ZM18.786 18.1201C18.8796 18.0907 18.9789 18.084 19.0757 18.1004C19.1721 18.1168 19.2633 18.1557 19.3418 18.2139C19.4203 18.2722 19.484 18.3481 19.5276 18.4356L21.6182 22.6567L23.4904 20.7076C23.5991 20.595 23.7463 20.5276 23.9026 20.5189C25.8219 20.4096 27.483 20.2333 28.8189 20.0496C28.9787 20.0337 29.1384 20.0804 29.2646 20.1798C29.3907 20.2793 29.4734 20.4237 29.4952 20.5828C29.5171 20.7419 29.4764 20.9033 29.3818 21.0331C29.2871 21.1628 29.1459 21.2509 28.9877 21.2787C27.4035 21.495 25.8116 21.6507 24.2154 21.7455L21.9013 24.1539C21.8323 24.2256 21.7471 24.2797 21.6529 24.3116C21.5587 24.3435 21.4581 24.3522 21.3598 24.3371C21.2615 24.322 21.1682 24.2835 21.0879 24.2249C21.0075 24.1662 20.9425 24.0891 20.8982 24L18.7951 19.7541L16.9229 21.5816C16.8613 21.642 16.7877 21.6889 16.7069 21.7192C16.6261 21.7496 16.5398 21.7627 16.4536 21.7579C14.4971 21.6486 12.8037 21.4674 11.438 21.2787C11.2798 21.2509 11.1386 21.1628 11.044 21.0331C10.9493 20.9033 10.9087 20.7419 10.9305 20.5828C10.9524 20.4237 11.0351 20.2793 11.1612 20.1798C11.2873 20.0804 11.4471 20.0337 11.6069 20.0496C13.1491 20.2598 14.6988 20.4114 16.2525 20.504L18.5369 18.2693C18.6069 18.2006 18.6923 18.1494 18.786 18.1201Z" fill="#212529"/>
<path fill-rule="evenodd" clip-rule="evenodd" d="M22.5068 3.5694C22.2977 4.07438 21.9277 4.49624 21.4543 4.76953V7.58523H26.4203C29.3837 7.58523 32.2257 8.76242 34.3211 10.8578C36.4165 12.9533 37.5937 15.7953 37.5937 18.7586V20.0001C38.2522 20.0001 38.8838 20.2617 39.3494 20.7274C39.8151 21.193 40.0767 21.8246 40.0767 22.4831V27.4491C40.0767 28.1076 39.8151 28.7391 39.3494 29.2048C38.8838 29.6704 38.2522 29.932 37.5937 29.932V32.415C37.5937 33.7321 37.0705 34.9952 36.1392 35.9265C35.2079 36.8578 33.9448 37.381 32.6277 37.381H7.79797C6.48091 37.381 5.2178 36.8578 4.28651 35.9265C3.35521 34.9952 2.83201 33.7321 2.83201 32.415V29.932C2.17348 29.932 1.54193 29.6704 1.07628 29.2048C0.610632 28.7391 0.349033 28.1076 0.349033 27.4491V22.4831C0.349033 21.8246 0.610632 21.193 1.07628 20.7274C1.54193 20.2617 2.17348 20.0001 2.83201 20.0001V18.7586C2.83201 15.7953 4.00921 12.9533 6.10462 10.8578C8.20004 8.76242 11.042 7.58523 14.0054 7.58523H18.9714V4.76953C18.498 4.49624 18.1281 4.07438 17.9189 3.5694C17.7097 3.06442 17.673 2.50453 17.8145 1.97657C17.956 1.4486 18.2677 0.982072 18.7013 0.64933C19.135 0.316588 19.6663 0.13623 20.2129 0.13623C20.7594 0.13623 21.2908 0.316588 21.7244 0.64933C22.158 0.982072 22.4698 1.4486 22.6112 1.97657C22.7527 2.50453 22.716 3.06442 22.5068 3.5694ZM35.1107 32.415V18.7586C35.1107 16.4538 34.1951 14.2433 32.5654 12.6136C30.9356 10.9838 28.7251 10.0682 26.4203 10.0682H14.0054C11.7006 10.0682 9.49012 10.9838 7.86035 12.6136C6.23058 14.2433 5.31499 16.4538 5.31499 18.7586V32.415C5.31499 33.0735 5.57659 33.7051 6.04224 34.1707C6.50789 34.6364 7.13944 34.898 7.79797 34.898H32.6277C33.2863 34.898 33.9178 34.6364 34.3835 34.1707C34.8491 33.7051 35.1107 33.0735 35.1107 32.415Z" fill="#212529"/>
</g>
<defs>
<clipPath id="clip0_2336_811">
<rect width="39.7276" height="39.7276" fill="white" transform="translate(0.349033 0.13623)"/>
</clipPath>
</defs>
</svg>
